<?xml version="1.0" encoding="utf-8"?>
<!-- Generated by IcoMoon.io -->
<!DOCTYPE svg PUBLIC "-//W3C//DTD SVG 1.1//EN" "http://www.w3.org/Graphics/SVG/1.1/DTD/svg11.dtd">
<svg version="1.1" xmlns="http://www.w3.org/2000/svg" xmlns:xlink="http://www.w3.org/1999/xlink" width="1024" height="1024" viewBox="0 0 1024 1024" fill="#222">
<g id="icomoon-ignore">
</g>
<path d="M512 0c-194.432 0-352 157.568-352 352 0 128.992 118.016 265.696 160.992 385.76 64.096 179.040 56.992 286.24 191.008 286.24 136 0 126.88-106.688 191.008-285.504 43.104-120.32 160.992-258.496 160.992-386.496 0-194.432-157.632-352-352-352zM594.944 869.632l-158.656 19.808c-5.664-16.384-11.744-35.552-19.136-60.576-0.096-0.32-0.224-0.672-0.288-0.992l198.016-24.736c-2.816 9.44-5.824 19.36-8.448 28.256-4.192 14.368-7.936 26.848-11.488 38.24zM407.552 797.056c-5.824-19.264-12.384-39.552-19.68-61.056h248.512c-3.936 11.488-7.872 23.008-11.264 33.888l-217.568 27.168zM512 960c-32.416 0-47.328-3.744-63.904-40l135.616-16.992c-19.648 52.928-33.952 56.992-71.712 56.992zM661.504 672h-298.656c-15.936-34.56-35.072-69.12-53.952-102.944-41.76-74.72-84.896-152-84.896-217.056 0-158.816 129.184-288 288-288s288 129.184 288 288c0 64.576-43.2 142.272-84.992 217.44-18.688 33.696-37.696 68.192-53.504 102.56zM512 160c8.8 0 16 7.168 16 16s-7.168 16-16 16c-88.224 0-160 71.776-160 160 0 8.832-7.168 16-16 16s-16-7.168-16-16c0-105.888 86.112-192 192-192z"></path>
</svg>
