<?xml version="1.0" encoding="utf-8"?>
<!-- Generated by IcoMoon.io -->
<!DOCTYPE svg PUBLIC "-//W3C//DTD SVG 1.1//EN" "http://www.w3.org/Graphics/SVG/1.1/DTD/svg11.dtd">
<svg version="1.1" xmlns="http://www.w3.org/2000/svg" xmlns:xlink="http://www.w3.org/1999/xlink" width="1024" height="1024" viewBox="0 0 1024 1024" fill="#222">
<g id="icomoon-ignore">
</g>
<path d="M271.974 233.779c-57.446 57.293-308.582 415.488-91.597 632.422 216.883 216.986 574.976-34.202 632.525-91.597 57.395-57.293-17.152-225.024-166.502-374.374-149.453-149.453-316.979-224.051-374.426-166.451zM746.291 724.787c-16.998 16.794-148.224-23.398-274.637-149.914-126.31-126.413-166.707-257.69-149.709-274.586 16.794-16.998 148.173 23.398 274.432 149.811 126.515 126.31 166.81 257.69 149.914 274.688zM790.221 306.278l97.485-97.587c20.019-20.019 20.019-52.378 0-72.397-19.968-20.019-52.378-20.019-72.397 0l-97.485 97.587c-20.019 20.019-20.019 52.429 0 72.397 19.968 19.968 52.378 19.968 72.397 0zM569.549 194.56c24.73 13.722 55.859 4.864 69.632-19.866l55.654-98.611c13.722-24.73 4.864-55.859-19.866-69.632-24.678-13.773-55.859-4.864-69.632 19.866l-55.654 98.611c-13.722 24.781-4.813 55.962 19.866 69.632zM1017.446 348.979c-13.67-24.73-44.902-33.638-69.632-19.866l-99.328 54.323c-24.73 13.722-33.638 44.954-19.866 69.632 13.722 24.73 44.902 33.638 69.632 19.866l99.328-54.323c24.73-13.773 33.638-44.902 19.866-69.632z"></path>
</svg>
