<?xml version="1.0" encoding="utf-8"?>
<!-- Generated by IcoMoon.io -->
<!DOCTYPE svg PUBLIC "-//W3C//DTD SVG 1.1//EN" "http://www.w3.org/Graphics/SVG/1.1/DTD/svg11.dtd">
<svg version="1.1" xmlns="http://www.w3.org/2000/svg" xmlns:xlink="http://www.w3.org/1999/xlink" width="1024" height="1024" viewBox="0 0 1024 1024" fill="#222">
<g id="icomoon-ignore">
</g>
<path d="M512 219.429q-116.571 0-218 39.714t-161.143 107.143-59.714 145.714q0 64 40.857 122t115.143 100.286l49.714 28.571-15.429 54.857q-13.714 52-40 98.286 86.857-36 157.143-97.714l24.571-21.714 32.571 3.429q39.429 4.571 74.286 4.571 116.571 0 218-39.714t161.143-107.143 59.714-145.714-59.714-145.714-161.143-107.143-218-39.714zM1024 512q0 99.429-68.571 183.714t-186.286 133.143-257.143 48.857q-40 0-82.857-4.571-113.143 100-262.857 138.286-28 8-65.143 12.571h-2.857q-8.571 0-15.429-6t-9.143-15.714v-0.571q-1.714-2.286-0.286-6.857t1.143-5.714 2.571-5.429l3.429-5.143t4-4.857 4.571-5.143q4-4.571 17.714-19.714t19.714-21.714 17.714-22.571 18.571-29.143 15.429-33.714 14.857-43.429q-89.714-50.857-141.429-125.714t-51.714-160.571q0-99.429 68.571-183.714t186.286-133.143 257.143-48.857 257.143 48.857 186.286 133.143 68.571 183.714z"></path>
</svg>
