<?xml version="1.0" encoding="utf-8"?>
<!-- Generated by IcoMoon.io -->
<!DOCTYPE svg PUBLIC "-//W3C//DTD SVG 1.1//EN" "http://www.w3.org/Graphics/SVG/1.1/DTD/svg11.dtd">
<svg version="1.1" xmlns="http://www.w3.org/2000/svg" xmlns:xlink="http://www.w3.org/1999/xlink" width="1024" height="1024" viewBox="0 0 1024 1024" fill="#222">
<g id="icomoon-ignore">
</g>
<path d="M889.056 253.952c30.688 74.016 16.064 162.368-44.128 222.56-66.272 66.272-166.432 76.64-244.288 32.704l-56.288 61.472 40.16 40.32 24-24c12.256-12.288 32.16-12.288 44.416 0l194.624 196.608c12.288 12.256 12.288 32.16 0 44.416l-88.832 88.832c-12.256 12.288-32.16 12.288-44.416 0l-194.624-196.608c-12.288-12.256-12.288-32.16 0-44.416l21.92-21.92-38.272-38.368-269.152 294.048c-24.544 24.544-64.32 24.544-88.832 0l-22.208-22.208c-24.544-24.544-24.544-64.32 0-88.832l306.624-256.8-203.648-204.192-64.32-0.032-74.432-119.68 59.904-60 122.4 74.912 0.8 62.976 206.016 206.816 59.936-50.176c-58.592-79.872-52.48-192.384 19.712-264.576 59.904-59.904 147.776-74.784 221.6-44.672l-131.968 130.144 111.072 111.072 132.224-130.4zM196.8 829.888c-12.256-12.256-32.128-12.256-44.416 0-12.288 12.288-12.288 32.16 0 44.448 12.288 12.256 32.16 12.256 44.416 0 12.288-12.32 12.288-32.192 0-44.448z"></path>
</svg>
